<svg id="Capa_1" enable-background="new 0 0 512 512" height="512" viewBox="0 0 512 512" width="512" xmlns="http://www.w3.org/2000/svg"><g><path d="m292.659 147.091c4.143 0 7.5-3.357 7.5-7.5v-14.738c0-4.143-3.357-7.5-7.5-7.5s-7.5 3.357-7.5 7.5v14.738c0 4.142 3.358 7.5 7.5 7.5zm151.841-87.091h-90.012c-5.189-10.043-11.953-19.337-20.176-27.564-20.926-20.916-48.738-32.436-78.312-32.436-42.787 0-79.982 24.393-98.418 60h-90.082c-20.678 0-37.5 16.822-37.5 37.5v249.16c0 20.678 16.822 37.5 37.5 37.5h115.29l4.706 11.203c12.769 30.397 5.209 65.995-18.809 88.58-4.88 4.588-6.439 11.577-3.972 17.805 2.469 6.228 8.392 10.252 15.091 10.252h152.387c6.699 0 12.622-4.024 15.091-10.252 2.468-6.228.908-13.217-3.972-17.805-24.018-22.585-31.577-58.183-18.809-88.58l4.706-11.203h45.838c4.143 0 7.5-3.357 7.5-7.5s-3.357-7.5-7.5-7.5h-307.547c-12.406 0-22.5-10.094-22.5-22.5v-23.847h422v23.847c0 12.406-10.094 22.5-22.5 22.5h-34.452c-4.143 0-7.5 3.357-7.5 7.5s3.357 7.5 7.5 7.5h34.452c20.678 0 37.5-16.822 37.5-37.5v-249.16c0-20.678-16.822-37.5-37.5-37.5zm-131.56 324.16-2.266 5.395c-15.18 36.14-6.193 78.463 22.363 105.316.666.626.069 2.226-.844 2.129h-152.386c-.921.096-1.507-1.505-.844-2.129 28.557-26.854 37.543-69.177 22.363-105.316l-2.266-5.395zm13.157-131.152-22.95-4.856c-5.74-1.21-9.906-6.35-9.906-12.222v-9.555c27.386-13.775 46.242-42.224 46.242-75.029v-5.142c4.204.167 8.597-.573 12.268-2.266v47.798c-16.316 9.764-27.268 27.607-27.268 47.965-.001 4.586.567 9.039 1.614 13.307zm-92.337-17.078v-3.761c7.086 1.97 14.538 3.045 22.239 3.045 7.702 0 15.155-1.075 22.241-3.046v3.762c0 11.309 7.026 21.385 17.249 25.51-10.354 10.442-24.477 16.457-39.489 16.457s-29.135-6.015-39.49-16.458c10.225-4.126 17.25-14.202 17.25-25.509zm-46.244-84.584v-41.456c24.282-1.401 47.85-8.032 68.571-19.343 8.78-4.793 17.149-10.458 24.935-16.877 5 7.675 11.122 14.464 18.248 20.228 7.607 6.153 16.068 10.919 25.213 14.209v43.239c0 37.974-30.722 68.868-68.483 68.868s-68.484-30.895-68.484-68.868zm192.83 47.493c22.531 0 40.862 18.331 40.862 40.862s-18.331 40.862-40.862 40.862c-22.532 0-40.863-18.331-40.863-40.862s18.33-40.862 40.863-40.862zm-40.864-67.635v-21.05c6.303-.909 12.268 4.056 12.268 10.57 0 6.383-5.91 11.333-12.268 10.48zm-83.482-116.204c25.568 0 49.614 9.96 67.705 28.042 14.759 14.751 24.109 33.431 27.061 53.955-2.937-1.184-6.14-1.842-9.495-1.842h-8.142c-8.938-2.707-17.156-7.04-24.425-12.919-6.94-5.614-12.734-12.406-17.22-20.188-1.645-2.854-4.449-4.8-7.694-5.338-3.241-.539-6.516.396-8.986 2.562-7.977 6.988-16.691 13.081-25.903 18.109-20.676 11.286-44.519 17.431-68.953 17.773h-9.219c-3.352 0-6.552.657-9.485 1.84 6.689-46.303 46.63-81.994 94.756-81.994zm-95.75 105.595c-.025-6.547 5.937-11.158 12.266-10.441v21.05c-6.35.857-12.223-4-12.266-10.531zm-115.25 187.218v-210.313c0-12.406 10.094-22.5 22.5-22.5h83.673c-3.837 11.221-5.923 23.246-5.923 35.75v64.104c0 4.143 3.357 7.5 7.5 7.5s7.5-3.357 7.5-7.5v-30.914c3.949 1.831 7.821 2.373 12.266 2.263v5.142c0 32.806 18.857 61.255 46.244 75.03v9.554c0 5.872-4.166 11.012-9.912 12.223l-43.419 9.189c-1.753.371-3.48.81-5.179 1.312v-48.799c0-4.143-3.357-7.5-7.5-7.5s-7.5 3.357-7.5 7.5v55.325c-15.688 9.226-27.245 24.568-31.525 42.634zm84.26 0c5.567-17.912 20.491-31.825 39.273-35.796l31.496-6.666c13.354 17.334 33.911 27.545 55.97 27.545s42.616-10.211 55.971-27.545l21.403 4.529c9.391 14.564 25.353 24.503 43.669 25.577 2.422 3.856 4.323 8.019 5.674 12.356zm337.74 0h-68.722c-1.132-4.761-2.783-9.392-4.912-13.798 24.541-5.884 42.842-27.995 42.842-54.314 0-30.803-25.06-55.862-55.862-55.862-4.688 0-9.241.588-13.596 1.681v-74.77c0-12.349-2.016-24.388-5.878-35.75h83.628c12.406 0 22.5 10.094 22.5 22.5zm-247.661-190.46c-4.143 0-7.5 3.357-7.5 7.5v14.738c0 4.143 3.357 7.5 7.5 7.5s7.5-3.357 7.5-7.5v-14.738c0-4.143-3.358-7.5-7.5-7.5zm142.643 129.848h10.843v10.842c0 4.143 3.357 7.5 7.5 7.5s7.5-3.357 7.5-7.5v-10.842h10.842c4.143 0 7.5-3.357 7.5-7.5s-3.357-7.5-7.5-7.5h-10.842v-10.842c0-4.143-3.357-7.5-7.5-7.5s-7.5 3.357-7.5 7.5v10.842h-10.843c-4.143 0-7.5 3.357-7.5 7.5s3.358 7.5 7.5 7.5zm-87.7-50.394c3.628-1.999 4.948-6.56 2.95-10.188-1.997-3.627-6.56-4.947-10.188-2.95-2.372 1.307-6.2 2.851-11.044 2.851-.08 0-.161-.001-.241-.002-4.748-.05-8.496-1.576-10.804-2.848-3.631-2.001-8.19-.678-10.188 2.948-1.999 3.628-.68 8.189 2.948 10.188 5.473 3.016 11.657 4.645 17.886 4.711 7.982.085 14.724-2.53 18.681-4.71z"/></g></svg>